<svg xmlns="http://www.w3.org/2000/svg" xmlns:xlink="http://www.w3.org/1999/xlink" width="500" zoomAndPan="magnify" viewBox="0 0 375 374.999991" height="500" preserveAspectRatio="xMidYMid meet" version="1.0"><defs><g/><clipPath id="46691c5eb9"><path d="M 285 177 L 374 177 L 374 244 L 285 244 Z M 285 177 " clip-rule="nonzero"/></clipPath><clipPath id="7d1a23ac83"><path d="M 270.515625 233.066406 L 370.363281 161.234375 L 400.144531 202.636719 L 300.300781 274.464844 Z M 270.515625 233.066406 " clip-rule="nonzero"/></clipPath><clipPath id="70c8b6ae77"><path d="M 270.515625 233.066406 L 370.363281 161.234375 L 400.144531 202.636719 L 300.300781 274.464844 Z M 270.515625 233.066406 " clip-rule="nonzero"/></clipPath></defs><g fill="currentColor" fill-opacity="1"><g transform="translate(6.580745, 205.273764)"><g><path d="M 37.609375 0.640625 C 31.554688 0.640625 26.113281 -0.472656 21.28125 -2.703125 C 16.457031 -4.929688 12.625 -8.222656 9.78125 -12.578125 C 6.9375 -16.941406 5.515625 -22.222656 5.515625 -28.421875 C 5.515625 -32.742188 6.269531 -37.425781 7.78125 -42.46875 C 11.09375 -53.269531 16.097656 -61.066406 22.796875 -65.859375 C 29.492188 -70.648438 36.664062 -73.046875 44.3125 -73.046875 C 48.414062 -73.046875 52.050781 -72.429688 55.21875 -71.203125 C 58.382812 -69.984375 61.300781 -68.222656 63.96875 -65.921875 L 66.890625 -68.1875 C 68.835938 -69.695312 70.476562 -70.738281 71.8125 -71.3125 C 73.144531 -71.894531 74.640625 -72.1875 76.296875 -72.1875 C 78.097656 -72.1875 79.535156 -71.789062 80.609375 -71 C 81.691406 -70.207031 82.234375 -69.054688 82.234375 -67.546875 C 82.234375 -66.742188 82.085938 -65.945312 81.796875 -65.15625 L 75.75 -48.296875 C 75.101562 -46.359375 74.328125 -44.992188 73.421875 -44.203125 C 72.523438 -43.410156 71.175781 -43.015625 69.375 -43.015625 C 67.5 -43.015625 65.96875 -43.675781 64.78125 -45 C 63.59375 -46.332031 62.242188 -48.625 60.734375 -51.875 C 59.003906 -55.257812 57.597656 -57.488281 56.515625 -58.5625 C 55.429688 -59.644531 53.847656 -60.1875 51.765625 -60.1875 C 48.804688 -60.1875 45.957031 -58.367188 43.21875 -54.734375 C 40.488281 -51.097656 38.003906 -45.640625 35.765625 -38.359375 C 33.890625 -32.234375 32.953125 -27.117188 32.953125 -23.015625 C 32.953125 -19.410156 33.632812 -16.722656 35 -14.953125 C 36.375 -13.191406 38.21875 -12.3125 40.53125 -12.3125 C 43.914062 -12.3125 46.703125 -13.066406 48.890625 -14.578125 C 51.085938 -16.097656 53.34375 -18.15625 55.65625 -20.75 C 57.09375 -22.332031 58.257812 -23.5 59.15625 -24.25 C 60.0625 -25.007812 61.019531 -25.390625 62.03125 -25.390625 C 63.320312 -25.390625 64.6875 -24.738281 66.125 -23.4375 C 67.570312 -22.144531 68.257812 -20.851562 68.1875 -19.5625 C 68.257812 -17.976562 66.976562 -15.523438 64.34375 -12.203125 C 61.71875 -8.890625 58.082031 -5.921875 53.4375 -3.296875 C 48.789062 -0.671875 43.515625 0.640625 37.609375 0.640625 Z M 37.609375 0.640625 "/></g></g></g><g fill="currentColor" fill-opacity="1"><g transform="translate(79.195404, 205.273764)"><g><path d="M 38.578125 -57.171875 C 46.859375 -57.171875 53.484375 -55.640625 58.453125 -52.578125 C 63.429688 -49.515625 65.921875 -44.847656 65.921875 -38.578125 C 65.921875 -36.203125 65.488281 -33.5 64.625 -30.46875 L 60.1875 -15.5625 C 60.113281 -15.269531 60.078125 -14.910156 60.078125 -14.484375 C 60.078125 -13.328125 60.546875 -12.75 61.484375 -12.75 C 62.347656 -12.75 63.085938 -13.125 63.703125 -13.875 C 64.316406 -14.632812 64.734375 -15.015625 64.953125 -15.015625 C 65.304688 -15.015625 65.609375 -14.765625 65.859375 -14.265625 C 66.117188 -13.765625 66.25 -13.1875 66.25 -12.53125 C 66.3125 -10.59375 65.566406 -8.613281 64.015625 -6.59375 C 62.472656 -4.570312 60.40625 -2.910156 57.8125 -1.609375 C 55.21875 -0.316406 52.375 0.328125 49.28125 0.328125 C 45.53125 0.328125 42.320312 -0.351562 39.65625 -1.71875 C 36.988281 -3.09375 35.148438 -5.113281 34.140625 -7.78125 C 31.984375 -5.1875 29.425781 -3.1875 26.46875 -1.78125 C 23.519531 -0.375 20.351562 0.328125 16.96875 0.328125 C 13.144531 0.328125 9.9375 -0.410156 7.34375 -1.890625 C 4.75 -3.367188 2.820312 -5.273438 1.5625 -7.609375 C 0.300781 -9.953125 -0.328125 -12.421875 -0.328125 -15.015625 C -0.328125 -16.171875 -0.21875 -17.289062 0 -18.375 C 1.15625 -23.34375 3.660156 -27.085938 7.515625 -29.609375 C 11.367188 -32.128906 15.957031 -33.390625 21.28125 -33.390625 C 27.257812 -33.390625 33.132812 -32.453125 38.90625 -30.578125 L 41.609375 -37.71875 C 42.546875 -40.738281 43.015625 -43.078125 43.015625 -44.734375 C 42.941406 -46.460938 42.363281 -47.757812 41.28125 -48.625 C 40.195312 -49.488281 38.539062 -49.921875 36.3125 -49.921875 C 36.738281 -48.773438 36.953125 -47.585938 36.953125 -46.359375 C 36.953125 -43.691406 35.941406 -41.382812 33.921875 -39.4375 C 31.910156 -37.5 29.03125 -36.53125 25.28125 -36.53125 C 21.75 -36.53125 18.992188 -37.300781 17.015625 -38.84375 C 15.035156 -40.394531 14.046875 -42.320312 14.046875 -44.625 C 14.046875 -48.226562 16.0625 -51.21875 20.09375 -53.59375 C 24.132812 -55.976562 30.296875 -57.171875 38.578125 -57.171875 Z M 32.53125 -24.421875 C 30.507812 -24.421875 28.867188 -23.644531 27.609375 -22.09375 C 26.347656 -20.550781 25.71875 -18.878906 25.71875 -17.078125 C 25.71875 -15.921875 25.988281 -14.984375 26.53125 -14.265625 C 27.070312 -13.546875 27.847656 -13.1875 28.859375 -13.1875 C 29.785156 -13.1875 30.804688 -13.5625 31.921875 -14.3125 C 33.046875 -15.070312 33.859375 -16.207031 34.359375 -17.71875 L 36.640625 -24.09375 C 35.410156 -24.3125 34.039062 -24.421875 32.53125 -24.421875 Z M 32.53125 -24.421875 "/></g></g></g><g fill="currentColor" fill-opacity="1"><g transform="translate(147.703863, 205.273764)"><g><path d="M 53.0625 -57.171875 C 57.09375 -57.171875 60.3125 -55.941406 62.71875 -53.484375 C 65.132812 -51.035156 66.34375 -48.007812 66.34375 -44.40625 C 66.34375 -43.039062 66.203125 -41.78125 65.921875 -40.625 C 65.203125 -37.675781 63.832031 -35.410156 61.8125 -33.828125 C 59.789062 -32.242188 57.378906 -31.453125 54.578125 -31.453125 C 51.835938 -31.453125 49.765625 -32.097656 48.359375 -33.390625 C 46.953125 -34.691406 45.707031 -36.421875 44.625 -38.578125 C 44.050781 -39.804688 43.507812 -40.707031 43 -41.28125 C 42.5 -41.851562 41.925781 -42.140625 41.28125 -42.140625 C 40.5625 -42.140625 39.929688 -41.851562 39.390625 -41.28125 C 38.847656 -40.707031 38.363281 -39.695312 37.9375 -38.25 L 29.609375 -11.234375 C 29.460938 -10.878906 29.390625 -10.34375 29.390625 -9.625 C 29.390625 -8.6875 29.660156 -7.910156 30.203125 -7.296875 C 30.742188 -6.679688 31.484375 -6.085938 32.421875 -5.515625 C 33.285156 -4.929688 33.859375 -4.457031 34.140625 -4.09375 C 34.429688 -3.738281 34.539062 -3.273438 34.46875 -2.703125 C 34.320312 -1.765625 33.796875 -1.078125 32.890625 -0.640625 C 31.992188 -0.210938 30.46875 0 28.3125 0 L 0.640625 0 C -1.222656 0 -2.566406 -0.304688 -3.390625 -0.921875 C -4.222656 -1.535156 -4.535156 -2.34375 -4.328125 -3.34375 C -4.035156 -4.207031 -3.273438 -4.96875 -2.046875 -5.625 C -0.972656 -6.195312 -0.078125 -6.878906 0.640625 -7.671875 C 1.367188 -8.460938 1.984375 -9.722656 2.484375 -11.453125 L 12.109375 -42.6875 C 12.242188 -43.039062 12.3125 -43.546875 12.3125 -44.203125 C 12.3125 -44.992188 12.148438 -45.601562 11.828125 -46.03125 C 11.503906 -46.46875 10.984375 -47.007812 10.265625 -47.65625 C 9.546875 -48.226562 9.039062 -48.726562 8.75 -49.15625 C 8.46875 -49.59375 8.429688 -50.171875 8.640625 -50.890625 C 9.078125 -52.554688 11.347656 -54.019531 15.453125 -55.28125 C 19.554688 -56.539062 23.84375 -57.171875 28.3125 -57.171875 C 31.269531 -57.171875 33.71875 -56.503906 35.65625 -55.171875 C 37.601562 -53.835938 38.863281 -51.945312 39.4375 -49.5 C 42.894531 -54.613281 47.4375 -57.171875 53.0625 -57.171875 Z M 53.0625 -57.171875 "/></g></g></g><g fill="currentColor" fill-opacity="1"><g transform="translate(208.107966, 205.273764)"><g><path d="M 48.296875 -55.765625 C 49.671875 -55.765625 50.734375 -55.472656 51.484375 -54.890625 C 52.242188 -54.316406 52.625 -53.523438 52.625 -52.515625 C 52.625 -52.234375 52.550781 -51.726562 52.40625 -51 C 51.46875 -47.832031 49.304688 -46.25 45.921875 -46.25 L 39.65625 -46.25 L 31.546875 -19.5625 C 31.191406 -18.476562 31.015625 -17.359375 31.015625 -16.203125 C 31.015625 -14.910156 31.375 -14.007812 32.09375 -13.5 C 32.8125 -13 33.820312 -12.75 35.125 -12.75 C 36.269531 -12.75 37.707031 -12.894531 39.4375 -13.1875 C 40.300781 -13.40625 41.0625 -13.515625 41.71875 -13.515625 C 42.21875 -13.515625 42.59375 -13.347656 42.84375 -13.015625 C 43.09375 -12.691406 43.21875 -12.28125 43.21875 -11.78125 C 43.289062 -10.34375 42.226562 -8.59375 40.03125 -6.53125 C 37.832031 -4.476562 34.859375 -2.710938 31.109375 -1.234375 C 27.367188 0.234375 23.226562 0.96875 18.6875 0.96875 C 13.789062 0.96875 9.863281 -0.144531 6.90625 -2.375 C 3.957031 -4.613281 2.484375 -7.675781 2.484375 -11.5625 C 2.484375 -13.363281 2.769531 -15.09375 3.34375 -16.75 L 10.265625 -38.140625 C 10.628906 -39.367188 10.8125 -40.34375 10.8125 -41.0625 C 10.8125 -42.5 10.46875 -43.722656 9.78125 -44.734375 C 9.09375 -45.742188 8.140625 -46.789062 6.921875 -47.875 C 5.835938 -48.882812 5.078125 -49.726562 4.640625 -50.40625 C 4.210938 -51.09375 4.109375 -51.90625 4.328125 -52.84375 C 4.609375 -53.78125 5.21875 -54.5 6.15625 -55 C 7.09375 -55.507812 8.570312 -55.765625 10.59375 -55.765625 L 16.640625 -55.765625 L 23.453125 -62.5625 C 25.828125 -64.945312 28.003906 -66.601562 29.984375 -67.53125 C 31.960938 -68.46875 34.539062 -68.9375 37.71875 -68.9375 C 42.25 -68.9375 44.515625 -67.207031 44.515625 -63.75 C 44.515625 -62.675781 44.375 -61.671875 44.09375 -60.734375 L 42.578125 -55.765625 Z M 48.296875 -55.765625 "/></g></g></g><g fill="currentColor" fill-opacity="1"><g transform="translate(252.411445, 205.273764)"><g><path d="M 34.46875 -79.859375 C 38.644531 -79.859375 41.722656 -79.066406 43.703125 -77.484375 C 45.691406 -75.898438 46.6875 -73.738281 46.6875 -71 C 46.6875 -69.414062 46.429688 -67.863281 45.921875 -66.34375 L 28.953125 -11.234375 C 28.742188 -10.367188 28.640625 -9.613281 28.640625 -8.96875 C 28.640625 -8.03125 28.816406 -7.289062 29.171875 -6.75 C 29.535156 -6.207031 30.039062 -5.6875 30.6875 -5.1875 C 31.195312 -4.6875 31.554688 -4.269531 31.765625 -3.9375 C 31.984375 -3.613281 32.019531 -3.203125 31.875 -2.703125 C 31.519531 -1.765625 30.800781 -1.078125 29.71875 -0.640625 C 28.632812 -0.210938 26.976562 0 24.75 0 L 0.109375 0 C -1.765625 0 -3.132812 -0.304688 -4 -0.921875 C -4.863281 -1.535156 -5.148438 -2.34375 -4.859375 -3.34375 C -4.578125 -4.207031 -3.820312 -4.96875 -2.59375 -5.625 C -1.507812 -6.195312 -0.609375 -6.878906 0.109375 -7.671875 C 0.828125 -8.460938 1.4375 -9.722656 1.9375 -11.453125 L 18.375 -65.375 C 18.582031 -66.019531 18.6875 -66.5625 18.6875 -67 C 18.6875 -67.789062 18.488281 -68.4375 18.09375 -68.9375 C 17.695312 -69.445312 17.175781 -69.953125 16.53125 -70.453125 C 15.8125 -71.035156 15.289062 -71.539062 14.96875 -71.96875 C 14.644531 -72.40625 14.585938 -72.984375 14.796875 -73.703125 C 15.234375 -75.359375 17.503906 -76.796875 21.609375 -78.015625 C 25.710938 -79.242188 30 -79.859375 34.46875 -79.859375 Z M 34.46875 -79.859375 "/></g></g></g><g fill="currentColor" fill-opacity="1"><g transform="translate(289.799206, 205.273764)"><g><path d="M 57.265625 -57.171875 C 60.441406 -57.171875 62.984375 -55.890625 64.890625 -53.328125 C 66.796875 -50.773438 67.75 -47.300781 67.75 -42.90625 C 67.75 -39.082031 67.066406 -34.972656 65.703125 -30.578125 C 63.035156 -21.722656 58.765625 -13.367188 52.890625 -5.515625 C 47.023438 2.335938 40.289062 8.640625 32.6875 13.390625 C 25.082031 18.148438 17.5 20.53125 9.9375 20.53125 C 6.195312 20.53125 2.972656 19.878906 0.265625 18.578125 C -2.429688 17.285156 -4.484375 15.554688 -5.890625 13.390625 C -7.296875 11.234375 -8 8.929688 -8 6.484375 C -8 5.398438 -7.816406 4.210938 -7.453125 2.921875 C -6.804688 0.898438 -5.722656 -0.644531 -4.203125 -1.71875 C -2.691406 -2.800781 -0.894531 -3.34375 1.1875 -3.34375 C 4.5 -3.34375 7.21875 -2.210938 9.34375 0.046875 C 11.46875 2.316406 12.820312 5.4375 13.40625 9.40625 C 18.007812 9.1875 22.257812 7.203125 26.15625 3.453125 C 22.476562 2.804688 19.753906 1.566406 17.984375 -0.265625 C 16.222656 -2.109375 15.019531 -4.972656 14.375 -8.859375 L 10.046875 -35.34375 C 9.828125 -36.707031 9.519531 -37.660156 9.125 -38.203125 C 8.726562 -38.742188 8.207031 -39.015625 7.5625 -39.015625 C 7.0625 -39.015625 6.46875 -38.757812 5.78125 -38.25 C 5.09375 -37.75 4.609375 -37.5 4.328125 -37.5 C 3.742188 -37.5 3.453125 -38.109375 3.453125 -39.328125 C 3.453125 -40.335938 3.632812 -41.421875 4 -42.578125 C 5.289062 -46.679688 7.703125 -50.15625 11.234375 -53 C 14.765625 -55.84375 18.875 -57.265625 23.5625 -57.265625 C 28.164062 -57.265625 31.566406 -55.894531 33.765625 -53.15625 C 35.960938 -50.425781 37.382812 -46.21875 38.03125 -40.53125 L 41.28125 -16.75 C 41.5 -14.945312 42.144531 -14.046875 43.21875 -14.046875 C 44.519531 -14.046875 46.035156 -15.21875 47.765625 -17.5625 C 49.492188 -19.90625 51.1875 -23.238281 52.84375 -27.5625 C 50.675781 -29.5 49.015625 -31.726562 47.859375 -34.25 C 46.710938 -36.769531 46.140625 -39.472656 46.140625 -42.359375 C 46.140625 -44.585938 46.425781 -46.601562 47 -48.40625 C 47.863281 -51.289062 49.210938 -53.472656 51.046875 -54.953125 C 52.890625 -56.429688 54.960938 -57.171875 57.265625 -57.171875 Z M 57.265625 -57.171875 "/></g></g></g><g clip-path="url(#46691c5eb9)"><g clip-path="url(#7d1a23ac83)"><g clip-path="url(#70c8b6ae77)"><path fill="#ff5757" d="M 346.886719 202.246094 C 346.886719 202.246094 346.878906 202.246094 346.875 202.242188 C 346.894531 202.21875 346.910156 202.195312 346.929688 202.171875 C 346.933594 202.164062 346.941406 202.152344 346.949219 202.140625 C 346.949219 202.140625 346.949219 202.140625 346.953125 202.144531 C 353.230469 195.285156 357.527344 180.808594 358.003906 180.464844 C 359.117188 180.433594 355.625 195.304688 350.066406 203.300781 C 350.699219 203.539062 351.332031 203.769531 351.964844 204.003906 C 358.589844 195.90625 362.507812 179.914062 362.953125 179.597656 C 364.09375 179.539062 360.972656 195.925781 355.070312 205.160156 C 355.699219 205.394531 356.332031 205.628906 356.964844 205.863281 C 363.949219 196.535156 367.5 179.015625 367.90625 178.734375 C 369.089844 178.640625 366.339844 196.550781 360.089844 207.023438 C 360.722656 207.261719 361.359375 207.496094 361.996094 207.734375 C 369.324219 197.15625 372.507812 178.121094 372.878906 177.863281 C 374.101562 177.742188 371.726562 197.179688 365.117188 208.894531 C 365.117188 208.894531 365.113281 208.90625 365.109375 208.90625 C 365.085938 208.957031 365.058594 209.007812 365.035156 209.0625 C 365.03125 209.054688 365.023438 209.054688 365.019531 209.054688 C 361.265625 215.144531 354.917969 218.304688 350.269531 216.375 C 336.265625 233.558594 313.972656 244.613281 288.867188 243.519531 C 286.78125 243.46875 285.007812 241.128906 286.386719 238.453125 C 287.746094 235.792969 290.957031 234.140625 292.542969 234.359375 C 312.757812 236.925781 333.054688 229.378906 347.355469 214.332031 C 344.289062 210.617188 344.578125 206.171875 346.882812 202.246094 Z M 346.886719 202.246094 " fill-opacity="1" fill-rule="nonzero"/></g></g></g></svg>
